<svg
   xmlns:dc="http://purl.org/dc/elements/1.1/"
   xmlns:cc="http://creativecommons.org/ns#"
   xmlns:rdf="http://www.w3.org/1999/02/22-rdf-syntax-ns#"
   xmlns:svg="http://www.w3.org/2000/svg"
   xmlns="http://www.w3.org/2000/svg"
   xmlns:sodipodi="http://sodipodi.sourceforge.net/DTD/sodipodi-0.dtd"
   xmlns:inkscape="http://www.inkscape.org/namespaces/inkscape"
   version="1.1"
   id="Capa_1"
   x="0px"
   y="0px"
   viewBox="0 0 611.999 611.999"
   style="enable-background:new 0 0 611.999 611.999;"
   xml:space="preserve"
   inkscape:version="0.91 r13725"
   sodipodi:docname="likered.svg"><metadata
     id="metadata45"><rdf:RDF><cc:Work
         rdf:about=""><dc:format>image/svg+xml</dc:format><dc:type
           rdf:resource="http://purl.org/dc/dcmitype/StillImage" /><dc:title></dc:title></cc:Work></rdf:RDF></metadata><defs
     id="defs43" /><sodipodi:namedview
     pagecolor="#ffffff"
     bordercolor="#666666"
     borderopacity="1"
     objecttolerance="10"
     gridtolerance="10"
     guidetolerance="10"
     inkscape:pageopacity="0"
     inkscape:pageshadow="2"
     inkscape:window-width="640"
     inkscape:window-height="480"
     id="namedview41"
     showgrid="false"
     inkscape:zoom="0.38562153"
     inkscape:cx="305.60089"
     inkscape:cy="306.08127"
     inkscape:window-x="488"
     inkscape:window-y="287"
     inkscape:window-maximized="0"
     inkscape:current-layer="Capa_1" /><g
     id="g3"
     style="fill:#d40000"
     transform="matrix(-1,0,0,-1,609.40566,614.59265)"><g
       id="g5"
       style="fill:#d40000"><path
         d="m 17.582,611.999 133.104,0 0,-306.14 -133.104,0 c 0,0 0,306.14 0,306.14 z M 84.067,330.484 c 19.453,0 35.219,15.773 35.219,35.226 0,19.44 -15.766,35.213 -35.219,35.213 -19.453,0 -35.213,-15.773 -35.213,-35.213 0,-19.454 15.76,-35.226 35.213,-35.226 z"
         id="path7"
         style="fill:#d40000"
         inkscape:connector-curvature="0" /><path
         d="m 588.179,317.14 c 0,0 43.578,-105.305 -99.629,-79.111 0,0 -88.454,18.528 -98.637,-8.512 0,0 -7.001,-20.525 25.536,-59.577 0,0 72.109,-80.109 -9.504,-158.214 0,0 -41.562,-35.04 -48.077,16.026 -6.509,51.072 0.998,54.074 -27.04,93.632 0,0 -78.904,76.096 -95.276,134.682 0,0 -21.809,66.472 -58.253,67.55 l 0,231.328 c 12.146,-0.226 51.325,-1.75 92.807,12.698 0,0 75.843,18.042 125.244,18.042 0,0 100.161,2.329 130.708,-21.37 0,0 26.794,-19.859 21.297,-45.894 0,0 -4.998,-17.144 8.146,-27.04 0,0 38.287,-24.205 19.593,-62.579 0,0 -9.816,-17.53 5.89,-32.537 0,0 23.074,-17.783 7.168,-39.559 0.007,-0.013 -10.601,-18.648 0.027,-39.565 z"
         id="path9"
         style="fill:#d40000"
         inkscape:connector-curvature="0" /></g></g><g
     id="g11" /><g
     id="g13" /><g
     id="g15" /><g
     id="g17" /><g
     id="g19" /><g
     id="g21" /><g
     id="g23" /><g
     id="g25" /><g
     id="g27" /><g
     id="g29" /><g
     id="g31" /><g
     id="g33" /><g
     id="g35" /><g
     id="g37" /><g
     id="g39" /></svg>